<svg width="47" height="10" viewBox="0 0 47 10" fill="none" xmlns="http://www.w3.org/2000/svg">
<g id="Group 3">
<g id="XMLID_2_" opacity="0.16">
<path id="XMLID_8_" d="M47 5.25131C47 7.8745 43.3901 10 38.9353 10H0C0.899577 9.41195 1.62023 8.74671 2.14374 8.01576C2.77328 7.14027 3.09136 6.20893 3.09136 5.25131C3.09136 4.29369 2.77162 3.36235 2.14374 2.48686C1.62023 1.75755 0.899577 1.09067 0 0.502625H38.9353C41.1619 0.502625 43.178 1.03482 44.6376 1.89389C46.0971 2.75295 47 3.94054 47 5.25131Z" fill="white"/>
<path id="Vector" d="M46.947 5.2086C46.947 7.8203 43.3437 9.93758 38.9005 9.93758H0.0530138C0.950934 9.35282 1.66993 8.68922 2.19179 7.96156C2.81967 7.08935 3.13775 6.16294 3.13775 5.2086C3.13775 4.25427 2.81967 3.32786 2.19179 2.45565C1.66828 1.72799 0.950934 1.06439 0.0530138 0.47963H38.9021C41.1238 0.47963 43.135 1.00854 44.5912 1.86432C46.0474 2.7201 46.947 3.90276 46.947 5.2086Z" fill="#F5F4F4"/>
<path id="Vector_2" d="M46.8956 5.16589C46.8956 7.76773 43.3006 9.8768 38.8674 9.8768H0.104371C1.00063 9.29369 1.71632 8.63337 2.23817 7.909C2.8644 7.04007 3.18248 6.11695 3.18248 5.16589C3.18248 4.21484 2.8644 3.29336 2.23817 2.42279C1.71798 1.69842 1.00063 1.0381 0.104371 0.454987H38.8674C41.084 0.454987 43.0919 0.982253 44.5448 1.83475C45.9961 2.68725 46.8956 3.86497 46.8956 5.16589Z" fill="#EAEAEA"/>
<path id="Vector_3" d="M46.8426 5.12319C46.8426 7.71353 43.2559 9.81439 38.8326 9.81439H0.157385C1.05199 9.23292 1.76602 8.57589 2.28787 7.85315C2.91244 6.98752 3.23053 6.06932 3.23053 5.12155C3.23053 4.17543 2.9141 3.25558 2.28787 2.38995C1.76768 1.66886 1.05199 1.01018 0.157385 0.428711H38.8326C41.0442 0.428711 43.0472 0.954335 44.4968 1.80355C45.9463 2.6544 46.8426 3.8272 46.8426 5.12319Z" fill="#E0DFDF"/>
<path id="Vector_4" d="M46.7913 5.08049C46.7913 7.66098 43.2128 9.75362 38.7994 9.75362H0.208741C1.10003 9.17543 1.81406 8.52004 2.33426 7.8006C2.95717 6.93824 3.2736 6.02333 3.2736 5.08049C3.2736 4.13765 2.95717 3.22274 2.33426 2.36039C1.81406 1.64094 1.10169 0.98555 0.208741 0.407364H38.7978C41.0045 0.407364 43.0024 0.931346 44.4487 1.77563C45.895 2.62156 46.7913 3.78943 46.7913 5.08049Z" fill="#D5D4D5"/>
<path id="Vector_5" d="M46.7382 5.03778C46.7382 7.60841 43.1681 9.6912 38.7646 9.6912H0.261755C1.15139 9.11465 1.86376 8.46255 2.3823 7.74639C3.00522 6.88732 3.31999 5.97569 3.31999 5.03614C3.31999 4.09658 3.00356 3.18495 2.3823 2.32589C1.86376 1.61301 1.15139 0.959265 0.261755 0.382721H38.7646C40.9664 0.382721 42.961 0.903417 44.404 1.74606C45.8453 2.5887 46.7382 3.75164 46.7382 5.03778Z" fill="#CBCACA"/>
<path id="Vector_6" d="M46.6852 4.99507C46.6852 7.55421 43.1234 9.63042 38.7282 9.63042H0.314769C1.20275 9.05716 1.91346 8.4067 2.43035 7.69383C3.0516 6.83804 3.36637 5.93134 3.36637 4.99507C3.36637 4.06045 3.0516 3.1521 2.43035 2.29632C1.91181 1.58344 1.20275 0.932985 0.314769 0.359726H38.7299C40.9266 0.359726 42.9163 0.87878 44.3559 1.71814C45.7956 2.55585 46.6852 3.71551 46.6852 4.99507Z" fill="#C0BFBF"/>
<path id="Vector_7" d="M46.6339 4.95236C46.6339 7.50164 43.0803 9.56964 38.6951 9.56964H0.366126C1.25245 8.99803 1.95985 8.35085 2.47674 7.64126C3.09633 6.7904 3.4111 5.88535 3.4111 4.95401C3.4111 4.02266 3.09633 3.11761 2.47674 2.26675C1.96151 1.55387 1.25245 0.906699 0.366126 0.335083H38.6951C40.8869 0.335083 42.8716 0.852494 44.3079 1.68692C45.7442 2.52299 46.6339 3.67772 46.6339 4.95236Z" fill="#B6B4B5"/>
<path id="Vector_8" d="M46.5809 4.90966C46.5809 7.44908 43.0339 9.50723 38.6603 9.50723H0.41914C1.30381 8.93889 2.00955 8.29336 2.52478 7.58541C3.14272 6.73784 3.45583 5.83607 3.45583 4.90966C3.45583 3.9816 3.14272 3.08147 2.52478 2.2339C2.00955 1.52595 1.30215 0.880419 0.41914 0.312088H38.6619C40.8487 0.312088 42.8301 0.826214 44.2632 1.659C45.6945 2.49014 46.5809 3.63995 46.5809 4.90966Z" fill="#ABAAAA"/>
<path id="Vector_9" d="M46.5295 4.86695C46.5295 7.39487 42.9908 9.44645 38.6271 9.44645H0.470497C1.35185 8.87976 2.0576 8.23751 2.57117 7.53285C3.18745 6.68856 3.50056 5.79172 3.50056 4.86695C3.50056 3.94218 3.18745 3.04533 2.57117 2.20105C2.0576 1.49638 1.35351 0.854134 0.470497 0.287445H38.6255C40.8073 0.287445 42.7837 0.799929 44.2135 1.62779C45.6448 2.45729 46.5295 3.60216 46.5295 4.86695Z" fill="#A19F9F"/>
<path id="Vector_10" d="M46.4765 4.82261C46.4765 7.34068 42.9461 9.3824 38.5923 9.3824H0.523511C1.40321 8.81735 2.1073 8.17839 2.61921 7.47701C3.23384 6.63601 3.54695 5.74245 3.54695 4.82261C3.54695 3.90276 3.2355 3.0092 2.61921 2.1682C2.1073 1.46847 1.40321 0.827863 0.523511 0.262817H38.5923C40.7692 0.262817 42.7407 0.773658 44.1671 1.59823C45.5935 2.42445 46.4765 3.56439 46.4765 4.82261Z" fill="#969495"/>
<path id="Vector_11" d="M46.4235 4.7799C46.4235 7.28811 42.9014 9.32162 38.5576 9.32162H0.576525C1.45456 8.75986 2.157 8.12254 2.66725 7.42445C3.28023 6.58673 3.59168 5.69646 3.59168 4.78154C3.59168 3.86499 3.28023 2.97635 2.66725 2.13864C2.15534 1.4389 1.45456 0.801583 0.576525 0.239822H38.5592C40.7311 0.239822 42.6976 0.749021 44.1223 1.57031C45.5438 2.3916 46.4235 3.52662 46.4235 4.7799Z" fill="#8C8A8A"/>
<path id="Vector_12" d="M46.3721 4.73719C46.3721 7.2339 42.8583 9.2592 38.5244 9.2592H0.627882C1.50427 8.69908 2.20504 8.06505 2.7153 7.37024C3.32827 6.53581 3.63807 5.65046 3.63807 4.73719C3.63807 3.82392 3.32661 2.93857 2.7153 2.10414C2.20504 1.40933 1.50427 0.773655 0.627882 0.215179H38.5228C40.6897 0.215179 42.6529 0.721093 44.0726 1.5391C45.4924 2.35874 46.3721 3.48883 46.3721 4.73719Z" fill="#817F80"/>
<path id="Vector_13" d="M46.3191 4.69448C46.3191 7.18134 42.8136 9.19843 38.488 9.19843H0.680895C1.55562 8.64159 2.25308 8.0092 2.76334 7.31604C3.37466 6.48489 3.68445 5.60283 3.68445 4.69448C3.68445 3.78614 3.37466 2.90408 2.76334 2.07293C2.25308 1.38141 1.55396 0.749018 0.680895 0.192184H38.4896C40.6516 0.192184 42.6098 0.696455 44.0263 1.51117C45.4427 2.32589 46.3191 3.45105 46.3191 4.69448Z" fill="#777475"/>
<path id="Vector_14" d="M46.2677 4.65177C46.2677 7.12878 42.7705 9.136 38.4548 9.136H0.732252C1.60367 8.58081 2.30113 7.95171 2.80973 7.26183C3.41939 6.43397 3.72919 5.55683 3.72919 4.65177C3.72919 3.74671 3.41939 2.86794 2.80973 2.04172C2.30278 1.35184 1.60532 0.722732 0.732252 0.167542H38.4548C40.6118 0.167542 42.5651 0.67017 43.9799 1.4816C45.393 2.29303 46.2677 3.41327 46.2677 4.65177Z" fill="#6C6A6A"/>
<path id="Vector_15" d="M46.2147 4.60906C46.2147 7.07457 42.7241 9.07522 38.4201 9.07522H0.785266C1.65502 8.52168 2.35083 7.89585 2.85777 7.20926C3.46577 6.38469 3.77392 5.51083 3.77392 4.60906C3.77392 3.70729 3.46577 2.83344 2.85777 2.00886C2.35083 1.32227 1.65502 0.696446 0.785266 0.142899H38.4201C40.5721 0.142899 42.522 0.642241 43.9318 1.45039C45.3417 2.26018 46.2147 3.37713 46.2147 4.60906Z" fill="#625F60"/>
<path id="Vector_16" d="M46.1617 4.56636C46.1617 7.02201 42.6794 9.01281 38.3853 9.01281H0.83828C1.70638 8.46254 2.40053 7.83837 2.90582 7.15505C3.51216 6.33541 3.8203 5.4632 3.8203 4.56636C3.8203 3.66951 3.51216 2.7973 2.90582 1.97766C2.39887 1.29435 1.70472 0.670166 0.83828 0.119904H38.3853C40.5323 0.119904 42.4773 0.617604 43.8838 1.42247C45.292 2.22733 46.1617 3.33935 46.1617 4.56636Z" fill="#575455"/>
<path id="Vector_17" d="M46.1104 4.52366C46.1104 6.96945 42.6363 8.95204 38.3521 8.95204H0.889637C1.75608 8.40342 2.44857 7.78253 2.9522 7.1025C3.55689 6.28614 3.86503 5.41886 3.86503 4.5253C3.86503 3.63174 3.55855 2.76446 2.9522 1.9481C2.44857 1.26479 1.75608 0.643896 0.889637 0.0952759H38.3521C40.4942 0.0952759 42.4342 0.591334 43.8391 1.39291C45.2423 2.19449 46.1104 3.30158 46.1104 4.52366Z" fill="#4D4A4A"/>
<path id="Vector_18" d="M46.0573 4.48095C46.0573 6.91525 42.5916 8.88963 38.3173 8.88963H0.942651C1.80744 8.34429 2.49827 7.72504 3.00025 7.04666C3.60493 6.23358 3.91142 5.36959 3.91142 4.47931C3.91142 3.58904 3.60493 2.72668 3.00025 1.91197C2.49662 1.23687 1.80578 0.617616 0.942651 0.0722809H38.3173C40.4545 0.0722809 42.3911 0.566696 43.791 1.36335C45.1909 2.16164 46.0573 3.26381 46.0573 4.48095Z" fill="#423F40"/>
<path id="Vector_19" d="M46.006 4.43824C46.006 6.86268 42.5485 8.82885 38.2826 8.82885H0.994008C1.85548 8.28515 2.54466 7.66919 3.04663 6.99409C3.64967 6.1843 3.95449 5.32359 3.95449 4.43824C3.95449 3.55289 3.64801 2.69218 3.04663 1.88239C2.54632 1.2073 1.85714 0.59133 0.994008 0.0476379H38.2826C40.4147 0.0476379 42.3464 0.538768 43.743 1.33377C45.1412 2.12878 46.006 3.22602 46.006 4.43824Z" fill="#383435"/>
<path id="Vector_20" d="M45.953 4.39554C45.953 6.81012 42.5038 8.76643 38.2478 8.76643H1.04702C1.90684 8.22602 2.59436 7.6117 3.09633 6.93989C3.69771 6.13338 4.00254 5.2776 4.00254 4.39554C4.00254 3.51347 3.69771 2.65769 3.09633 1.85119C2.59436 1.17773 1.90684 0.56505 1.04702 0.0246429H38.2478C40.3749 0.0246429 42.3017 0.51413 43.6966 1.30421C45.0898 2.09593 45.953 3.18824 45.953 4.39554Z" fill="#2D2A2B"/>
<path id="XMLID_7_" d="M45.9 4.35283C45.9 6.75591 42.459 8.70565 38.213 8.70565H1.09838C1.95654 8.16689 2.6424 7.55585 3.14272 6.88732C3.74244 6.0841 4.04727 5.2316 4.04727 4.35283C4.04727 3.47405 3.74244 2.62155 3.14272 1.81833C2.6424 1.1498 1.95654 0.538765 1.09838 0H38.213C40.3352 0 42.2569 0.487845 43.6485 1.27464C45.0401 2.06307 45.9 3.15046 45.9 4.35283Z" fill="#231F20"/>
</g>
<path id="XMLID_1_" opacity="0.4" d="M45.9 4.35283C45.9 6.75591 42.459 8.70565 38.213 8.70565H1.09838C1.95654 8.16689 2.6424 7.55585 3.14272 6.88732C3.74244 6.0841 4.04727 5.2316 4.04727 4.35283C4.04727 3.47405 3.74244 2.62155 3.14272 1.81833C2.6424 1.1498 1.95654 0.538765 1.09838 0H38.213C40.3352 0 42.2569 0.487845 43.6485 1.27464C45.0401 2.06307 45.9 3.1521 45.9 4.35283Z" fill="url(#paint0_linear_44_91)"/>
</g>
<defs>
<linearGradient id="paint0_linear_44_91" x1="1.09916" y1="4.35312" x2="45.9007" y2="4.35312" gradientUnits="userSpaceOnUse">
<stop stop-color="#DBA9D4"/>
<stop offset="1" stop-color="#B354AB"/>
</linearGradient>
</defs>
</svg>
